<mxfile host="app.diagrams.net" modified="2023-06-17T08:40:18.278Z" agent="Mozilla/5.0 (Macintosh; Intel Mac OS X 10.15; rv:109.0) Gecko/20100101 Firefox/114.0" version="21.4.0" etag="TSRopOscH7IfLWQhSMkg" type="github">
  <diagram name="Page-1" id="bPpOpXoElfhLp_AB31nO">
    <mxGraphModel>
      <root>
        <mxCell id="0" />
        <mxCell id="1" parent="0" />
      </root>
    </mxGraphModel>
  </diagram>
</mxfile>
